<svg id="Capa_1" enable-background="new 0 0 495.992 495.992" height="512" viewBox="0 0 495.992 495.992" width="512" xmlns="http://www.w3.org/2000/svg"><g><g fill="#e19974"><path d="m42.165 127.119-39.673 7.335c-1.516.28-2.81-1.11-2.422-2.602l.49-1.884c4.148-15.954 15.666-28.967 30.999-35.022l1.623-.641 28.738-14.043 1.486 42.655z"/><path d="m293.787 333.091c-3.562-2.119-8.162-.952-10.281 2.609l-23.305 39.159-42.698 68.503h-17.75c-4.142 0-7.5 3.358-7.5 7.5s3.358 7.5 7.5 7.5h21.913c2.589 0 4.995-1.335 6.365-3.533l4.605-7.388 5.494 7.756c1.406 1.985 3.688 3.165 6.12 3.165h16.476c4.143 0 7.5-3.358 7.5-7.5s-3.357-7.5-7.5-7.5h-12.598l-6.888-9.724 31.732-50.91c.026-.043.054-.087.08-.132l23.345-39.226c2.118-3.557.95-8.16-2.61-10.279z"/><path d="m258.278 343.548c2.262-3.47 1.282-8.116-2.188-10.378-3.472-2.262-8.117-1.283-10.379 2.188l-25.622 39.309c-.023.036-.047.072-.07.109l-19.682 31.365c-.011.017-.022.034-.032.052l-8.366 13.333h-17.765c-4.142 0-7.5 3.358-7.5 7.5s3.358 7.5 7.5 7.5h21.913c2.581 0 4.981-1.327 6.353-3.514l4.633-7.383 5.477 7.732c1.406 1.985 3.688 3.165 6.12 3.165h16.476c4.142 0 7.5-3.358 7.5-7.5s-3.358-7.5-7.5-7.5h-12.597l-6.841-9.657 16.984-27.065z"/></g><path d="m351.692 376.522 130.015 84.736c3.727 2.429 8.657 1.857 11.729-1.361 3.515-3.682 3.389-9.513-.28-13.041l-65.4-62.872-73.293-78.417s-45.968 41.756-44.799 41.366c1.168-.391 42.028 29.589 42.028 29.589z" fill="#b5adb6"/><path d="m65.266 137.176c4.31 1.88 7.64 5.47 9.18 9.9l19.58 56.09c2.02 5.79 3.41 11.78 4.14 17.87l.438 3.639.002.001 176.931 4.21-67.471-72.36-59.38-56.67c-.63-.63-1.06-1.44-1.22-2.32l-1.24-6.67c-1.96-10.55-6.14-20.42-12.14-29.02-6.01-8.61-13.84-15.94-23.07-21.41-8.09-4.8-17.17-7.2-26.28-7.2-8.32 0-16.65 2.01-24.24 6.05-16.81 8.95-27.31 26.45-27.31 45.5v9.52l3.66 5.37c3.73 5.48 5.66 12 5.52 18.63l-.2 8.81z" fill="#8ebac5"/><path d="m42.15 127.122 23.116 10.054c4.31 1.88 7.64 5.47 9.18 9.9l19.58 56.09c2.02 5.79 3.41 11.78 4.14 17.87l.438 3.641.002-.001 40.962 10.19-1.067-8.866c-.73-6.09-2.12-12.08-4.14-17.87l-19.58-56.09c-1.54-4.43-4.87-8.02-9.18-9.9-19.555-9.014-32.08-28.579-32.08-50.111v-2.279c0-19.05 10.5-36.55 27.31-45.5 3.177-1.691 6.48-3.023 9.861-4.005-8.011-4.678-16.963-7.01-25.957-7.01-8.32 0-16.65 2.01-24.24 6.05-16.81 8.95-27.31 26.45-27.31 45.5v9.52l3.66 5.37c3.73 5.48 5.66 12 5.52 18.63z" fill="#7ca1b1"/><g id="XMLID_497_"><g><path d="m246.826 198.096 150.87 161.8-54.56 14.25-73.29 4.56c-85.1 5.28-159.55-56.73-169.72-141.38l-1.52-12.65c14.01-8.11 29.6-13.11 45.71-14.66l13.12-1.27z" fill="#b5adb6"/></g></g><g><g id="XMLID_499_"><g><path d="m478.396 374.096c1.68 1.62.75 4.46-1.56 4.78l-16.19 2.25c-116.21 16.12-231.17-36.88-294.38-135.72-6.14-9.59-9.1-20.39-9.1-31.09 0-16.65 7.18-33.07 20.79-44.41 10.6-8.83 23.74-13.38 36.98-13.38 9.1 0 18.24 2.14 26.65 6.52l20.03 10.42 13.42 7.93c57.81 34.19 107.34 80.74 145.04 136.33z" fill="#d7d0d6"/></g></g><g><path d="m77.519 90.711c-4.142 0-7.5-3.358-7.5-7.5v-5.898c0-4.142 3.358-7.5 7.5-7.5s7.5 3.358 7.5 7.5v5.898c0 4.142-3.358 7.5-7.5 7.5z" fill="#918291"/></g><g><g id="XMLID_501_"><g fill="#a79ba7"><path d="m375.763 262.25-.007.005c-.643.604-1.462.988-2.338 1.095l-12.832 1.565c-23.21 2.83-43.78 16.29-55.66 36.42-3.65 6.18-8.14 11.77-13.33 16.63-5.18 4.86-11.05 8.98-17.45 12.23l-14.91 7.55c-13.23-8.33-25.85-17.713-37.71-28.093l14.97-7.577c6.4-3.24 12.27-7.37 17.45-12.23s9.68-10.45 13.33-16.63c11.88-20.13 32.45-33.59 55.66-36.42l23.808-2.918c10.089 9.02 19.779 18.483 29.019 28.373z"/><path d="m478.396 374.096c1.68 1.62.75 4.46-1.56 4.78l-16.19 2.25c-46.69 6.48-93.191 1.799-136.211-12.541l11.381-11.969c21.22-22.33 47.052-39.761 75.712-51.061 2.92 4 5.768 8.071 8.548 12.171z"/></g></g></g></g><path d="m260.422 379.018c-62.747-16.015-111.846-69.165-119.964-136.729l-1.96-16.29c-.6-5.007-1.644-9.945-3.12-14.761-12.92 2.298-25.376 6.838-36.775 13.437l1.52 12.65c9.543 79.436 75.692 138.932 154.128 141.598.001 0 6.159.122 6.171.095z" fill="#a79ba7"/></g></svg>